<svg width="20" height="32" viewBox="0 0 20 32" fill="none" xmlns="http://www.w3.org/2000/svg">
<g clip-path="url(#clip0_401_148)">
<path d="M9.76148 2.68116C12.5298 6.19945 14.0076 10.5381 13.954 14.9901V16.0528L14.8674 16.6092C16.0475 17.3244 16.9276 18.4336 17.3474 19.7348C16.9789 19.4632 16.5933 19.2147 16.193 18.9909L13.7574 17.6219L13.3198 20.385C13.2818 20.6291 13.231 20.8712 13.1675 21.1101H6.34275C6.24126 20.7976 6.15881 20.485 6.08269 20.1599L5.53088 17.6594L3.28554 18.9097C2.91043 19.1197 2.54826 19.3514 2.20094 19.6036C2.62887 18.3174 3.49062 17.2144 4.64289 16.4779L5.51185 15.9215V14.9338C5.52752 10.4999 7.02309 6.19425 9.76783 2.68116H9.76148ZM9.76783 0.0805969C9.62548 0.080943 9.48806 0.13201 9.38092 0.224378L9.32383 0.274389C5.66633 4.30605 3.63537 9.51937 3.61537 14.9276C2.0633 15.92 0.914429 17.4185 0.369523 19.161C-0.175383 20.9036 -0.0816721 22.7795 0.634279 24.4609C1.3885 22.8192 2.6493 21.454 4.23696 20.56C4.39618 21.2398 4.60823 21.9065 4.87123 22.5542C4.90458 22.6787 4.97851 22.789 5.08165 22.868C5.18479 22.9471 5.31142 22.9906 5.44208 22.9918H14.2458C14.4234 22.9918 14.601 22.823 14.6898 22.5605C14.9465 21.9447 15.1254 21.3001 15.2226 20.6413C16.8133 21.5315 18.0751 22.8978 18.8253 24.5421C19.5844 22.869 19.7019 20.9813 19.1561 19.2293C18.6102 17.4772 17.4379 15.9799 15.8569 15.0151C15.9196 9.57499 13.8994 4.31151 10.1991 0.274389C10.144 0.21367 10.0766 0.165041 10.0012 0.131656C9.92581 0.0982718 9.84414 0.080876 9.76148 0.0805969L9.76783 0.0805969Z" fill="#4EA8DE"/>
<path d="M9.76144 14.4087C9.27427 14.4087 8.798 14.2665 8.39267 14.0001C7.98734 13.7337 7.6711 13.355 7.48381 12.9118C7.29652 12.4685 7.24656 11.9805 7.34023 11.5094C7.4339 11.0382 7.667 10.6048 8.01016 10.264C8.35333 9.92318 8.79118 9.69011 9.26853 9.59417C9.74589 9.49823 10.2414 9.54372 10.6925 9.72491C11.1437 9.90609 11.5303 10.2149 11.8037 10.6123C12.0771 11.0097 12.225 11.478 12.2288 11.9582C12.2364 12.2693 12.1817 12.5789 12.0678 12.8692C11.954 13.1595 11.7832 13.4249 11.5653 13.6501C11.3473 13.8754 11.0865 14.0561 10.7977 14.182C10.5088 14.3078 10.1977 14.3764 9.88196 14.3837C9.84204 14.39 9.80136 14.39 9.76144 14.3837V14.4087Z" fill="#4EA8DE"/>
<path d="M13.1929 24.5484C13.0342 24.5434 12.8761 24.5697 12.7278 24.6257C12.5796 24.6817 12.4441 24.7664 12.3295 24.8747C12.2149 24.983 12.1234 25.1128 12.0604 25.2564C11.9973 25.4 11.964 25.5546 11.9624 25.7111V29.3994C11.9624 29.7211 12.092 30.0295 12.3228 30.257C12.5536 30.4844 12.8665 30.6122 13.1929 30.6122C13.5192 30.6122 13.8322 30.4844 14.063 30.257C14.2937 30.0295 14.4234 29.7211 14.4234 29.3994V25.7611C14.4285 25.6052 14.402 25.4499 14.3455 25.3042C14.2891 25.1585 14.2037 25.0253 14.0945 24.9124C13.9853 24.7995 13.8544 24.7092 13.7094 24.6467C13.5644 24.5842 13.4082 24.5508 13.25 24.5484H13.1929Z" fill="#5E60CE"/>
<path d="M6.34277 24.5484C6.18137 24.54 6.0199 24.5636 5.86797 24.618C5.71604 24.6723 5.57676 24.7562 5.4584 24.8647C5.34005 24.9732 5.24505 25.104 5.17905 25.2494C5.11305 25.3949 5.0774 25.5519 5.07422 25.7111V29.3994C5.07422 29.7211 5.20386 30.0295 5.43462 30.257C5.66538 30.4844 5.97836 30.6122 6.30471 30.6122C6.63106 30.6122 6.94404 30.4844 7.1748 30.257C7.40556 30.0295 7.5352 29.7211 7.5352 29.3994V25.7611C7.54027 25.6052 7.5138 25.4499 7.45734 25.3042C7.40088 25.1585 7.31555 25.0253 7.20634 24.9124C7.09712 24.7995 6.9662 24.7092 6.8212 24.6467C6.6762 24.5842 6.52003 24.5508 6.3618 24.5484H6.34277Z" fill="#5E60CE"/>
<path d="M9.67263 24.5484C9.51436 24.5451 9.35698 24.5725 9.20948 24.6292C9.06198 24.6858 8.92724 24.7705 8.81297 24.8785C8.6987 24.9865 8.60714 25.1156 8.54351 25.2585C8.47988 25.4013 8.44544 25.5551 8.44214 25.7111V30.7935C8.44214 31.1151 8.57178 31.4236 8.80254 31.651C9.0333 31.8785 9.34628 32.0062 9.67263 32.0062C9.99898 32.0062 10.312 31.8785 10.5427 31.651C10.7735 31.4236 10.9031 31.1151 10.9031 30.7935V25.7924C10.9082 25.6365 10.8817 25.4812 10.8253 25.3355C10.7688 25.1897 10.6835 25.0566 10.5743 24.9437C10.465 24.8308 10.3341 24.7405 10.1891 24.678C10.0441 24.6155 9.88795 24.582 9.72971 24.5796L9.67263 24.5484Z" fill="#5E60CE"/>
</g>
<defs>
<clipPath id="clip0_401_148">
<rect width="19.4849" height="31.9194" fill="white" transform="translate(0 0.0805969)"/>
</clipPath>
</defs>
</svg>
