<svg width="81" height="27" viewBox="0 0 81 27" fill="none" xmlns="http://www.w3.org/2000/svg">
<path d="M13.3982 6.44836V11.4861H0.666626V6.44836H13.3982ZM3.13243 1.8136H10.0769V19.5718C10.0769 19.8405 10.1231 20.0672 10.2153 20.2519C10.3076 20.4282 10.4502 20.5625 10.6431 20.6549C10.836 20.7389 11.0834 20.7809 11.3853 20.7809C11.595 20.7809 11.8382 20.7557 12.115 20.7053C12.4002 20.6549 12.6098 20.6129 12.744 20.5793L13.7505 25.466C13.4402 25.5583 12.9957 25.6717 12.4169 25.806C11.8466 25.9404 11.1673 26.0285 10.3789 26.0705C8.78533 26.1545 7.44759 25.9908 6.36566 25.5793C5.28372 25.1595 4.47017 24.5004 3.92501 23.602C3.37985 22.7036 3.11566 21.5785 3.13243 20.2267V1.8136Z" fill="#4EA8DE"/>
<path d="M25.3341 26.1461C23.2373 26.1461 21.4425 25.7305 19.9496 24.8992C18.4567 24.0596 17.3119 22.8925 16.5151 21.398C15.7183 19.895 15.3199 18.1528 15.3199 16.1713C15.3199 14.1898 15.7183 12.4517 16.5151 10.9572C17.3119 9.45424 18.4567 8.28715 19.9496 7.45591C21.4425 6.61629 23.2373 6.19647 25.3341 6.19647C27.4309 6.19647 29.2257 6.61629 30.7186 7.45591C32.2115 8.28715 33.3564 9.45424 34.1532 10.9572C34.9499 12.4517 35.3483 14.1898 35.3483 16.1713C35.3483 18.1528 34.9499 19.895 34.1532 21.398C33.3564 22.8925 32.2115 24.0596 30.7186 24.8992C29.2257 25.7305 27.4309 26.1461 25.3341 26.1461ZM25.3844 21.0076C25.9715 21.0076 26.479 20.8102 26.9067 20.4156C27.3344 20.021 27.6657 19.4584 27.9006 18.728C28.1354 17.9975 28.2528 17.1285 28.2528 16.1209C28.2528 15.1049 28.1354 14.2359 27.9006 13.5139C27.6657 12.7834 27.3344 12.2208 26.9067 11.8262C26.479 11.4316 25.9715 11.2343 25.3844 11.2343C24.7638 11.2343 24.2312 11.4316 23.7867 11.8262C23.3422 12.2208 23.0025 12.7834 22.7677 13.5139C22.5328 14.2359 22.4154 15.1049 22.4154 16.1209C22.4154 17.1285 22.5328 17.9975 22.7677 18.728C23.0025 19.4584 23.3422 20.021 23.7867 20.4156C24.2312 20.8102 24.7638 21.0076 25.3844 21.0076Z" fill="#4EA8DE"/>
<path d="M45.182 26.0453C43.8065 26.0453 42.54 25.6843 41.3826 24.9622C40.2336 24.2401 39.311 23.1444 38.6149 21.6751C37.9271 20.2057 37.5833 18.3543 37.5833 16.1209C37.5833 13.7867 37.9439 11.8892 38.6652 10.4282C39.3949 8.96725 40.3342 7.89672 41.4833 7.21662C42.6407 6.53652 43.8568 6.19647 45.1316 6.19647C46.0878 6.19647 46.9265 6.3644 47.6478 6.70025C48.3691 7.02771 48.9729 7.46851 49.4594 8.02267C49.9458 8.56843 50.3149 9.16877 50.5665 9.82368H50.6671V0H57.6116V25.7934H50.7174V22.6196H50.5665C50.2981 23.2746 49.9123 23.8623 49.4091 24.3829C48.9142 24.895 48.3103 25.3023 47.5974 25.6045C46.8929 25.8984 46.0878 26.0453 45.182 26.0453ZM47.7484 20.7053C48.3858 20.7053 48.931 20.5206 49.3839 20.1511C49.8452 19.7733 50.1974 19.2443 50.4407 18.5642C50.6923 17.8757 50.8181 17.0613 50.8181 16.1209C50.8181 15.1637 50.6923 14.3451 50.4407 13.665C50.1974 12.9765 49.8452 12.4517 49.3839 12.0907C48.931 11.7212 48.3858 11.5365 47.7484 11.5365C47.111 11.5365 46.5658 11.7212 46.1129 12.0907C45.6684 12.4517 45.3245 12.9765 45.0813 13.665C44.8465 14.3451 44.7291 15.1637 44.7291 16.1209C44.7291 17.0781 44.8465 17.9009 45.0813 18.5894C45.3245 19.2695 45.6684 19.7943 46.1129 20.1637C46.5658 20.5248 47.111 20.7053 47.7484 20.7053Z" fill="#5E60CE"/>
<path d="M70.3307 26.1461C68.2339 26.1461 66.4391 25.7305 64.9462 24.8992C63.4533 24.0596 62.3084 22.8925 61.5116 21.398C60.7149 19.895 60.3165 18.1528 60.3165 16.1713C60.3165 14.1898 60.7149 12.4517 61.5116 10.9572C62.3084 9.45424 63.4533 8.28715 64.9462 7.45592C66.4391 6.61629 68.2339 6.19647 70.3307 6.19647C72.4274 6.19647 74.2223 6.61629 75.7152 7.45592C77.2081 8.28715 78.3529 9.45424 79.1497 10.9572C79.9465 12.4517 80.3449 14.1898 80.3449 16.1713C80.3449 18.1528 79.9465 19.895 79.1497 21.398C78.3529 22.8925 77.2081 24.0596 75.7152 24.8992C74.2223 25.7305 72.4274 26.1461 70.3307 26.1461ZM70.381 21.0076C70.9681 21.0076 71.4755 20.8102 71.9032 20.4156C72.331 20.021 72.6623 19.4584 72.8971 18.728C73.132 17.9975 73.2494 17.1285 73.2494 16.1209C73.2494 15.105 73.132 14.2359 72.8971 13.5139C72.6623 12.7834 72.331 12.2208 71.9032 11.8262C71.4755 11.4316 70.9681 11.2343 70.381 11.2343C69.7603 11.2343 69.2278 11.4316 68.7832 11.8262C68.3387 12.2208 67.9991 12.7834 67.7642 13.5139C67.5294 14.2359 67.412 15.105 67.412 16.1209C67.412 17.1285 67.5294 17.9975 67.7642 18.728C67.9991 19.4584 68.3387 20.021 68.7832 20.4156C69.2278 20.8102 69.7603 21.0076 70.381 21.0076Z" fill="#5E60CE"/>
</svg>
